<svg width="24.000000" height="24.000000" viewBox="0 0 24 24" fill="none" xmlns="http://www.w3.org/2000/svg" xmlns:xlink="http://www.w3.org/1999/xlink">
	<desc>
			Created with Pixso.
	</desc>
	<defs>
		<clipPath id="clip302_9496">
			<rect id="Icon/Outline/bell" width="24.000000" height="24.000000" fill="white" fill-opacity="0"/>
		</clipPath>
	</defs>
	<g clip-path="url(#clip302_9496)">
		<path id="Icon" d="M5.4 15.59C5.78 15.21 6 14.69 6 14.15L6 11C6 8.38 7.66 6.16 10 5.34L10 5C10 3.89 10.89 3 12 3C13.1 3 14 3.89 14 5L14 5.34C16.33 6.16 18 8.38 18 11L18 14.15C18 14.69 18.21 15.21 18.59 15.59L20 17L15 17L9 17L4 17L5.4 15.59ZM15 17L15 18C15 19.65 13.65 21 12 21C10.34 21 9 19.65 9 18L9 17" stroke="#FFFFFF" stroke-opacity="1.000000" stroke-width="2.000000" stroke-linejoin="round"/>
	</g>
</svg>
