<svg width="19.000000" height="19.000000" viewBox="0 0 19 19" fill="none" xmlns="http://www.w3.org/2000/svg" xmlns:xlink="http://www.w3.org/1999/xlink">
	<desc>
			Created with Pixso.
	</desc>
	<defs/>
	<path id="Icon" d="M9 18.6C14.3 18.6 18.6 14.3 18.6 9C18.6 3.69 14.3 -0.6 9 -0.6C3.69 -0.6 -0.6 3.69 -0.6 9C-0.6 14.3 3.69 18.6 9 18.6ZM8.46 5.6C8.09 5.35 7.62 5.33 7.23 5.54C6.84 5.75 6.6 6.15 6.6 6.59L6.6 11.4C6.6 11.84 6.84 12.24 7.23 12.45C7.62 12.66 8.09 12.64 8.46 12.39L12.06 9.99C12.39 9.77 12.6 9.4 12.6 9C12.6 8.59 12.39 8.22 12.06 8L8.46 5.6Z" fill="#FFFFFF" fill-opacity="1.000000" fill-rule="evenodd"/>
	<path id="Icon" d="M9 18.6C14.3 18.6 18.6 14.3 18.6 9C18.6 3.69 14.3 -0.6 9 -0.6C3.69 -0.6 -0.6 3.69 -0.6 9C-0.6 14.3 3.69 18.6 9 18.6ZM10.71 16.4Q9.87 16.6 9 16.6Q8.12 16.6 7.28 16.4Q6.65 16.26 6.04 16Q5.41 15.73 4.85 15.37Q4.19 14.94 3.62 14.37Q3.05 13.8 2.62 13.14Q2.26 12.58 1.99 11.95Q1.73 11.34 1.59 10.71Q1.4 9.87 1.4 9Q1.4 8.12 1.59 7.28Q1.73 6.65 1.99 6.04Q2.26 5.41 2.62 4.85Q3.05 4.19 3.62 3.62Q4.19 3.05 4.85 2.62Q5.41 2.26 6.04 1.99Q6.65 1.73 7.28 1.59Q8.12 1.4 9 1.4Q9.87 1.4 10.71 1.59Q11.34 1.73 11.95 1.99Q12.58 2.26 13.14 2.62Q13.8 3.05 14.37 3.62Q14.94 4.19 15.37 4.85Q15.73 5.41 16 6.04Q16.26 6.65 16.4 7.28Q16.6 8.12 16.6 9Q16.6 9.87 16.4 10.71Q16.26 11.34 16 11.95Q15.73 12.58 15.37 13.14Q14.94 13.8 14.37 14.37Q13.8 14.94 13.14 15.37Q12.58 15.73 11.95 16Q11.34 16.26 10.71 16.4ZM13.17 6.33L9.57 3.93Q9.2 3.69 8.8 3.55Q8.39 3.42 7.95 3.4Q7.51 3.38 7.09 3.47Q6.68 3.56 6.29 3.77Q5.89 3.98 5.59 4.28Q5.28 4.57 5.05 4.95Q4.82 5.33 4.71 5.74Q4.6 6.15 4.6 6.59L4.6 11.4Q4.6 11.84 4.71 12.25Q4.82 12.66 5.05 13.04Q5.28 13.42 5.59 13.71Q5.89 14.01 6.29 14.22Q6.68 14.43 7.09 14.52Q7.51 14.61 7.95 14.59Q8.39 14.57 8.8 14.44Q9.2 14.3 9.57 14.06L13.17 11.66Q13.5 11.44 13.77 11.15Q14.03 10.86 14.22 10.51Q14.41 10.15 14.5 9.77Q14.6 9.4 14.6 9Q14.6 8.59 14.5 8.22Q14.41 7.84 14.22 7.49Q14.03 7.13 13.77 6.84Q13.5 6.56 13.17 6.33ZM8.46 5.6C8.09 5.35 7.62 5.33 7.23 5.54C6.84 5.75 6.6 6.15 6.6 6.59L6.6 11.4C6.6 11.84 6.84 12.24 7.23 12.45C7.62 12.66 8.09 12.64 8.46 12.39L12.06 9.99C12.39 9.77 12.6 9.4 12.6 9C12.6 8.59 12.39 8.22 12.06 8L8.46 5.6Z" fill="#FFFFFF" fill-opacity="1.000000" fill-rule="evenodd"/>
</svg>
